<svg width="24" height="30" viewBox="0 0 24 30" fill="none" xmlns="http://www.w3.org/2000/svg">
<path d="M21.6034 13.0737H21.1622V9.16529C21.1622 4.1135 17.0549 0 11.9969 0C6.94516 0 2.83165 4.10729 2.83165 9.16529C2.83165 9.63132 3.20448 10.0041 3.67051 10.0041C4.13654 10.0041 4.50937 9.63132 4.50937 9.16529C4.50937 5.03935 7.8648 1.67771 11.9969 1.67771C16.1229 1.67771 19.4845 5.03314 19.4845 9.16529V13.0737H2.39669C1.50191 13.0737 0.774902 13.8007 0.774902 14.6955V25.1408C0.774902 27.819 2.95593 30 5.63406 30H18.366C21.0442 30 23.2252 27.819 23.2252 25.1408V14.6955C23.2252 13.8007 22.4982 13.0737 21.6034 13.0737ZM21.5475 25.1408C21.5475 26.8931 20.1245 28.3223 18.366 28.3223H5.64027C3.88799 28.3223 2.45883 26.8993 2.45883 25.1408V14.7514H21.5475V25.1408Z" fill="#FFFDFD"/>
</svg>
