<svg width="30" height="30" viewBox="0 0 30 30" fill="none" xmlns="http://www.w3.org/2000/svg">
<path d="M29.2726 21.3462C28.9584 21.2695 28.6411 21.462 28.5645 21.7763C27.5503 25.9284 23.8525 28.8284 19.5719 28.8284C14.9036 28.8284 11.0321 25.3544 10.405 20.8562C10.4128 20.8562 10.4205 20.8564 10.4283 20.8564C16.1783 20.8564 20.8564 16.1783 20.8564 10.4283C20.8564 10.4201 20.8562 10.4121 20.8562 10.4041C24.5622 10.9174 27.6361 13.6235 28.5567 17.3357C28.6345 17.6498 28.9522 17.8411 29.2662 17.7633C29.5802 17.6855 29.7718 17.3678 29.694 17.0538C29.1433 14.8336 27.8474 12.824 26.0447 11.3953C24.5064 10.1759 22.7074 9.43291 20.7852 9.21295C20.1812 4.03336 15.7672 0 10.4283 0C4.67812 0 0 4.67812 0 10.4283C0 15.7679 4.03427 20.1823 9.21455 20.7854C9.81789 25.9657 14.2323 30 19.5719 30C21.9546 30 24.1976 29.2177 26.0587 27.7373C27.8641 26.3013 29.1582 24.283 29.7027 22.0544C29.7794 21.7401 29.5869 21.4229 29.2726 21.3462ZM19.6848 10.4283C19.6848 15.5322 15.5324 19.6848 10.4283 19.6848C10.391 19.6848 10.3539 19.6838 10.3166 19.6834C10.3162 19.6461 10.3152 19.609 10.3152 19.5717C10.3152 14.4678 14.4678 10.3152 19.5719 10.3152C19.609 10.3152 19.6461 10.3159 19.6834 10.3164C19.6838 10.3537 19.6848 10.3908 19.6848 10.4283ZM1.17165 10.4283C1.17165 5.32425 5.32402 1.17165 10.4283 1.17165C15.0966 1.17165 18.9679 4.64561 19.5953 9.14383C19.5875 9.14383 19.5797 9.1436 19.5719 9.1436C13.8217 9.1436 9.1436 13.8217 9.1436 19.5717C9.1436 19.5797 9.14406 19.5872 9.14406 19.5953C4.64561 18.9681 1.17165 15.0966 1.17165 10.4283Z" fill="#FFFDFD"/>
</svg>
