<svg width="30" height="30" viewBox="0 0 30 30" fill="none" xmlns="http://www.w3.org/2000/svg">
<path d="M30 8.446V2.554C30 1.2835 28.9665 0.25 27.696 0.25H2.304C1.0335 0.25 0 1.2835 0 2.554V8.4455C0 9.18 0.3515 9.8275 0.8885 10.2495C0.3515 10.672 0 11.32 0 12.054V17.9455C0 18.68 0.3515 19.3275 0.8885 19.7495C0.3515 20.172 0 20.82 0 21.554V27.4455C0 28.7165 1.0335 29.75 2.304 29.75H27.6955C28.966 29.75 29.9995 28.7165 29.9995 27.446V21.554C29.9995 20.8195 29.648 20.172 29.111 19.75C29.6485 19.328 30 18.68 30 17.946V12.054C30 11.3195 29.6485 10.672 29.1115 10.25C29.6485 9.828 30 9.18 30 8.446ZM29 21.554V27.4455C29 28.1645 28.415 28.7495 27.696 28.7495H2.304C1.585 28.75 1 28.165 1 27.446V21.554C1 20.835 1.585 20.25 2.304 20.25H27.6955C28.415 20.25 29 20.835 29 21.554ZM29 12.054V17.9455C29 18.6645 28.415 19.2495 27.696 19.2495H2.304C1.585 19.25 1 18.665 1 17.946V12.054C1 11.335 1.585 10.75 2.304 10.75H27.6955C28.415 10.75 29 11.335 29 12.054ZM2.304 9.75C1.585 9.75 1 9.165 1 8.446V2.554C1 1.835 1.585 1.25 2.304 1.25H27.6955C28.415 1.25 29 1.835 29 2.554V8.4455C29 9.1645 28.415 9.7495 27.696 9.7495H2.304V9.75Z" fill="#FFFDFD"/>
</svg>
