<svg width="98" height="98" viewBox="0 0 98 98" fill="none" xmlns="http://www.w3.org/2000/svg">
<path d="M94.3125 66.1875C94.3125 56.5016 87.9797 48.2781 79.2406 45.4094C82.6641 43.1781 84.9375 39.3203 84.9375 34.9375C84.9375 28.0453 79.3297 22.4375 72.4375 22.4375C65.5453 22.4375 59.9375 28.0453 59.9375 34.9375C59.9375 39.3187 62.2078 43.1734 65.6281 45.4062C62.4016 46.4594 59.4391 48.25 56.9687 50.7203C53.3437 54.3453 51.15 59.0187 50.6656 64.0547L49.4016 63.6328C49.0203 62.4531 48.5516 61.3172 48.0016 60.2359L50.0187 56.2031L49 55.1844V44.3125C49 34.6266 42.6672 26.4031 33.9281 23.5344C37.3516 21.3031 39.625 17.4453 39.625 13.0625C39.625 6.17031 34.0172 0.5625 27.125 0.5625C20.2328 0.5625 14.625 6.17031 14.625 13.0625C14.625 17.4453 16.8984 21.3031 20.3219 23.5344C11.5828 26.4031 5.25 34.6266 5.25 44.3125V55.1844L4.23125 56.2031L6.24844 60.2359C5.69844 61.3156 5.22969 62.4531 4.84844 63.6328L0.5625 65.0609V76.6875L4.84844 78.1156C5.22969 79.2953 5.69844 80.4313 6.24844 81.5125L4.23125 85.5469L12.4531 93.7688L16.4859 91.7531C17.5656 92.3031 18.7031 92.7703 19.8828 93.1531L21.3109 97.4375H27.125H32.9391H94.3125V75.5625C96.0359 75.5625 97.4375 74.1609 97.4375 72.4375V69.3125C97.4375 67.5891 96.0359 66.1875 94.3125 66.1875ZM91.1875 66.1875H86.5V59.9375H83.375V66.1875H75.1297L83.6828 51.2187C88.2297 54.6437 91.1875 60.0703 91.1875 66.1875ZM72.4375 47.4375C73.6953 47.4375 74.9234 47.5672 76.1125 47.8031L72.4375 51.4781L68.7562 47.7969C69.9563 47.5594 71.1875 47.4375 72.4375 47.4375ZM76.9094 56.775L74.5312 53.8031L79.5047 48.8297C80.0297 49.0438 80.5406 49.2844 81.0406 49.5453L76.9094 56.775ZM70.3438 53.8031L67.9656 56.775L63.8266 49.5312C64.3281 49.2719 64.8375 49.0297 65.3594 48.8172L70.3438 53.8031ZM72.4375 56.1891L75.2406 59.6938L72.4375 64.6016L69.6344 59.6938L72.4375 56.1891ZM63.0625 34.9375C63.0625 29.7672 67.2672 25.5625 72.4375 25.5625C77.6078 25.5625 81.8125 29.7672 81.8125 34.9375C81.8125 40.1078 77.6078 44.3125 72.4375 44.3125C67.2672 44.3125 63.0625 40.1078 63.0625 34.9375ZM59.1781 52.9297C59.8078 52.3 60.4875 51.7391 61.1875 51.2109L69.7453 66.1875H61.5V59.9375H58.375V66.1875H53.6875C53.6875 61.1797 55.6375 56.4703 59.1781 52.9297ZM45.875 44.3125V52.0594L41.7969 47.9797L41.1875 48.2859V38.0625H38.0625V49.8484L37.7641 49.9984C36.6844 49.4484 35.5469 48.9813 34.3672 48.5984L32.9391 44.3125H29.8172L38.3703 29.3438C42.9172 32.7687 45.875 38.1953 45.875 44.3125ZM18.5219 27.6703C20.0172 26.8938 21.6219 26.3031 23.3172 25.9516L21.9516 33.6734L18.5219 27.6703ZM26.5562 25.5906C26.7469 25.5859 26.9328 25.5625 27.125 25.5625C27.3172 25.5625 27.5031 25.5859 27.6938 25.5906L29.8734 37.9141L27.125 42.7266L24.3766 37.9156L26.5562 25.5906ZM32.2969 33.6734L30.9313 25.9516C32.6266 26.3031 34.2312 26.8938 35.7266 27.6703L32.2969 33.6734ZM17.75 13.0625C17.75 7.89219 21.9547 3.6875 27.125 3.6875C32.2953 3.6875 36.5 7.89219 36.5 13.0625C36.5 18.2328 32.2953 22.4375 27.125 22.4375C21.9547 22.4375 17.75 18.2328 17.75 13.0625ZM8.375 44.3125C8.375 38.1953 11.3328 32.7687 15.8797 29.3438L24.4328 44.3125H21.3109L19.8813 48.5984C18.7016 48.9797 17.5656 49.4484 16.4844 49.9984L16.1875 49.8484V38.0625H13.0625V48.2859L12.4531 47.9813L8.375 52.0594V44.3125ZM27.125 94.3125H23.5641L22.3313 90.6172L21.5391 90.3891C20.0266 89.9578 18.5891 89.3656 17.2672 88.6281L16.5469 88.2266L13.0687 89.9641L8.03281 84.9281L9.77031 81.45L9.36875 80.7297C8.63281 79.4062 8.03906 77.9688 7.60781 76.4594L7.38125 75.6656L3.6875 74.4359V67.3125L7.38281 66.0812L7.60938 65.2875C8.04063 63.7766 8.63438 62.3391 9.37031 61.0172L9.77188 60.2969L8.03438 56.8188L13.0703 51.7812L16.5469 53.5203L17.2672 53.1188C18.5891 52.3813 20.0266 51.7891 21.5391 51.3578L22.3313 51.1297L23.5641 47.4375H30.6875L31.9203 51.1328L32.7125 51.3609C34.225 51.7922 35.6625 52.3844 36.9844 53.1219L37.7047 53.5234L41.1813 51.7844L46.2172 56.8219L44.4797 60.3L44.8813 61.0203C45.6172 62.3438 46.2109 63.7812 46.6422 65.2906L46.8687 66.0844L50.5625 67.3141V67.75V74.4359L46.8672 75.6672L46.6406 76.4609C46.2094 77.9719 45.6156 79.4094 44.8797 80.7312L44.4781 81.4516L46.2156 84.9297L41.1797 89.9656L37.7016 88.2281L36.9813 88.6297C35.6594 89.3672 34.2219 89.9594 32.7094 90.3906L31.9172 90.6188L30.6859 94.3125H27.125ZM91.1875 94.3125H33.9813L34.3687 93.1516C35.5484 92.7703 36.6859 92.3016 37.7656 91.7516L41.7984 93.7672L50.0203 85.5453L48.0031 81.5125C48.5531 80.4328 49.0219 79.2953 49.4031 78.1156L53.6875 76.6891V75.5625H91.1875V94.3125ZM94.3125 72.4375H53.6875V69.3125H94.3125V72.4375Z" fill="white"/>
</svg>
