<svg width="100" height="100" viewBox="0 0 100 100" fill="none" xmlns="http://www.w3.org/2000/svg">
<path d="M95.1483 15.2246H94.3005C94.1249 14.7233 93.9206 14.232 93.6893 13.7531L94.2842 13.1613C95.7115 11.7379 96.1409 9.59423 95.3727 7.73061C94.6045 5.86622 92.7896 4.64856 90.7736 4.64392H90.7651C89.4399 4.64237 88.1689 5.17229 87.2382 6.11532L86.6464 6.71022C86.1675 6.47891 85.6763 6.27468 85.175 6.0983V5.25043C85.175 2.49638 82.9424 0.26375 80.1883 0.26375C77.4343 0.26375 75.2016 2.49638 75.2016 5.25043V6.0983C74.6996 6.27468 74.2091 6.47891 73.7302 6.71022L73.1384 6.11532C72.207 5.17229 70.9367 4.64237 69.6108 4.64392H69.603C67.587 4.64856 65.7714 5.86622 65.0032 7.73061C64.235 9.59423 64.6643 11.7379 66.0924 13.1613L66.6873 13.7531C66.456 14.232 66.2518 14.7233 66.0754 15.2246H65.2275C62.4735 15.2246 60.2408 17.4572 60.2408 20.2112C60.2408 22.9653 62.4735 25.1979 65.2275 25.1979H66.0785C66.2549 25.6992 66.4591 26.1904 66.6904 26.6693L66.0955 27.2611C64.5862 28.7449 64.1948 31.027 65.1231 32.9293L58.672 39.3774C56.3875 37.8255 53.7147 36.9451 50.9552 36.8337H49.4111C46.7236 36.9498 44.1181 37.8 41.8793 39.2923L35.6115 33.0253C42.5531 24.7972 41.7702 12.5579 33.8361 5.28137C25.902 -1.99596 13.641 -1.71978 6.0419 5.90567C-1.55724 13.5319 -1.78933 25.7936 5.51508 33.7022C12.8195 41.6108 25.0618 42.3503 33.2659 35.3794L39.5422 41.6541C38.716 42.9158 38.248 44.3795 38.1892 45.8865C38.1714 46.2625 38.1629 46.5912 38.1497 46.9355C37.414 46.7529 36.6435 46.7576 35.9101 46.9487C33.5916 47.559 33.3356 50.5792 33.8941 53.3038C34.7412 55.5721 36.5646 57.3374 38.8591 58.111C38.6077 60.6578 39.7 63.1519 41.7416 64.6952C41.9543 64.8731 42.1423 65.0511 42.3218 65.229C41.525 67.5839 40.3777 69.8057 38.9171 71.8178C34.5726 72.159 30.4717 73.9607 27.2813 76.929C24.7013 79.9995 23.4078 83.9472 23.6709 87.9483C23.6709 99.6677 47.5444 99.9996 50.2675 99.9996C52.9898 99.9996 76.8633 99.6677 76.8633 87.9483C77.1241 83.9495 75.8306 80.0041 73.2529 76.936C70.0626 73.9677 65.9617 72.1667 61.6171 71.8248C60.1356 69.7948 58.9799 67.5467 58.1916 65.1602C58.3494 65.0078 58.5087 64.8546 58.6898 64.7014C60.7576 63.1356 61.8515 60.5997 61.5707 58.0213C63.8985 57.2771 65.7629 55.5171 66.6394 53.2358C67.2242 50.5893 66.9867 47.5474 64.5444 46.937C63.801 46.7669 63.0282 46.7669 62.2839 46.937C62.2723 46.5943 62.2638 46.2725 62.2437 45.8935C62.1857 44.4375 61.7447 43.0226 60.9657 41.791L67.4718 35.2842C68.1371 35.6083 68.8666 35.7785 69.6061 35.7832H69.6146C70.9398 35.7855 72.2109 35.2556 73.1415 34.3118L73.7333 33.7169C74.2114 33.9459 74.7011 34.1485 75.2016 34.3242V35.1712C75.2016 37.9253 77.4343 40.1587 80.1883 40.1587C82.9424 40.1587 85.175 37.9253 85.175 35.1712V34.3242C85.6763 34.1478 86.1675 33.9435 86.6464 33.7122L87.2382 34.3071C88.1557 35.2757 89.4399 35.8095 90.7736 35.7785C92.7896 35.7739 94.6045 34.5555 95.3727 32.6918C96.1409 30.8282 95.7115 28.6845 94.2842 27.2611L93.6893 26.6693C93.9199 26.1904 94.1241 25.6992 94.3005 25.1979H95.1483C97.9024 25.1979 100.135 22.9653 100.135 20.2112C100.135 17.4572 97.9024 15.2246 95.1483 15.2246ZM3.72417 20.2112C3.72417 11.0308 11.1663 3.58872 20.3467 3.58872C29.5271 3.58872 36.9692 11.0308 36.9692 20.2112C36.9692 29.3916 29.5271 36.8337 20.3467 36.8337C11.1701 36.8237 3.73423 29.3878 3.72417 20.2112ZM37.1355 52.5426C36.9661 51.7504 36.9313 50.9358 37.0326 50.132C37.431 50.1591 37.8171 50.2806 38.1598 50.4864C38.2193 51.7412 38.3802 52.989 38.6417 54.2175C38.0066 53.7951 37.4883 53.2187 37.1355 52.5426ZM55.7532 68.1556C56.4308 69.637 57.2083 71.0713 58.0802 72.4475C55.5404 73.2165 52.9171 73.6768 50.2675 73.8191C47.6233 73.6745 45.0054 73.2142 42.4711 72.446C43.3259 71.0922 44.0902 69.6834 44.7586 68.2291C45.7187 69.4374 47.1916 70.1228 48.735 70.0795H51.6971C53.2745 70.1221 54.7776 69.4073 55.7392 68.1556H55.7532ZM50.2675 85.7807C46.8396 83.1434 44.0841 79.7326 42.2251 75.8274C44.8445 76.5825 47.5444 77.0242 50.2675 77.1441C52.9898 77.025 55.6882 76.5825 58.3061 75.8274C56.4494 79.7326 53.6946 83.1434 50.2675 85.7807ZM73.5392 87.9421C73.5392 95.0632 56.3047 96.6754 50.2675 96.6754C44.2303 96.6754 26.9958 95.0717 26.9958 87.9483C26.7545 84.7974 27.7238 81.6728 29.7066 79.212C32.1589 76.9979 35.2371 75.6 38.5164 75.2085C39.208 77.8373 41.5087 83.073 49.2332 89.2464C49.2765 89.272 49.3206 89.2952 49.3662 89.3153C49.4599 89.3764 49.5597 89.4275 49.6641 89.4677C49.7585 89.5087 49.8575 89.5396 49.9581 89.5613C50.0633 89.5791 50.1693 89.5876 50.276 89.586C50.3789 89.5876 50.4818 89.5791 50.5831 89.5613C50.6868 89.5396 50.7881 89.5079 50.8856 89.4661C50.9885 89.4259 51.086 89.3756 51.178 89.3153C51.2244 89.2952 51.2685 89.2727 51.3111 89.2464C59.0278 83.073 61.3363 77.8373 62.0279 75.2085C65.308 75.6 68.3862 76.9987 70.8377 79.212C72.8166 81.6744 73.7821 84.799 73.5392 87.9483V87.9421ZM56.5476 62.1586C55.5249 63.0428 54.619 64.0531 53.8508 65.1656C52.9086 66.4505 52.6494 66.7546 51.6902 66.7546H48.735C47.7842 66.7546 47.5243 66.4505 46.5735 65.1656C45.8061 64.0523 44.8994 63.042 43.876 62.1586C42.4672 61.1165 41.8097 59.338 42.2019 57.6306C42.2235 57.1966 42.2467 56.7565 42.2467 56.3008C42.2328 55.4181 42.1214 54.5401 41.9141 53.6829C41.4027 51.1749 41.2619 48.6057 41.4971 46.0575C41.7833 40.5471 49.2138 40.1664 49.4614 40.1533H50.8794C50.9552 40.1533 58.6186 40.5161 58.9064 46.059C59.1439 48.6073 59.0038 51.1772 58.4886 53.6845C58.2828 54.5424 58.1714 55.4204 58.1567 56.3023C58.1567 56.7526 58.1784 57.1951 58.1993 57.6322C58.5985 59.3349 57.9502 61.1126 56.5476 62.1586ZM63.4273 52.3763C63.0653 53.1073 62.5021 53.7208 61.8035 54.1432C62.0635 52.907 62.2213 51.6514 62.277 50.3897C62.6553 50.1986 63.0777 50.1096 63.5008 50.132C63.6053 50.8786 63.5805 51.6375 63.4273 52.3763ZM96.8108 20.2112C96.8108 21.1295 96.0666 21.8737 95.1483 21.8737H93.6808C92.5877 21.8753 91.6246 22.5932 91.3105 23.6406C91.1001 24.3384 90.8216 25.0146 90.4796 25.6582C89.9582 26.6237 90.1338 27.8166 90.9113 28.5909L91.9456 29.6175C92.4183 30.0917 92.5599 30.8035 92.3061 31.4223C92.0516 32.042 91.4513 32.4482 90.7821 32.4536C90.3404 32.4543 89.9164 32.278 89.6062 31.9631L88.5796 30.9296C87.8045 30.1521 86.6108 29.9772 85.6453 30.4987C85.0017 30.8406 84.3256 31.1191 83.627 31.3303C82.5741 31.6413 81.8508 32.6083 81.8508 33.7068V35.1712C81.8508 36.0895 81.1058 36.8337 80.1883 36.8337C79.27 36.8337 78.5258 36.0895 78.5258 35.1712V33.7037C78.5243 32.6106 77.8072 31.6482 76.7605 31.3334C76.0611 31.1206 75.385 30.839 74.7406 30.494C74.3754 30.3006 73.9693 30.1985 73.5554 30.1977C72.8994 30.1977 72.2704 30.46 71.8086 30.9265L70.7812 31.96C70.471 32.2741 70.0479 32.4512 69.6061 32.4505C68.6879 32.4505 67.9437 31.7063 67.9437 30.788C67.9475 30.3463 68.127 29.9239 68.4426 29.6144L69.4762 28.5871C70.2544 27.8127 70.43 26.6182 69.9071 25.6536C69.5651 25.0091 69.2866 24.3338 69.0762 23.6352C68.7583 22.5854 67.7889 21.8691 66.692 21.8737H65.2275C64.31 21.8737 63.5658 21.1295 63.5658 20.2112C63.5658 19.293 64.31 18.5487 65.2275 18.5487H66.6958C67.7882 18.5472 68.7513 17.8301 69.0662 16.7834C69.2766 16.0848 69.5543 15.4087 69.897 14.7643C70.4184 13.7988 70.242 12.6051 69.4646 11.8315L68.431 10.8042C67.9584 10.3299 67.816 9.61899 68.0705 9.0001C68.3243 8.38044 68.9254 7.9743 69.5945 7.96888C70.0363 7.96811 70.4594 8.14449 70.7696 8.45858L71.797 9.49289C72.5722 10.2696 73.7651 10.4444 74.7313 9.92302C75.3749 9.58108 76.0511 9.30258 76.7489 9.09216C77.8025 8.78117 78.5251 7.81339 78.5258 6.71486V5.25043C78.5258 4.33293 79.27 3.58872 80.1883 3.58872C81.1058 3.58872 81.8508 4.33293 81.8508 5.25043V6.71873C81.8523 7.81184 82.5703 8.77421 83.6177 9.08907C84.3155 9.29949 84.9916 9.57799 85.6353 9.91992C86.6008 10.4421 87.7944 10.2665 88.5673 9.48747L89.5946 8.45393C89.9048 8.13985 90.3288 7.96269 90.7705 7.96347C91.688 7.96347 92.4322 8.70768 92.4322 9.62595C92.4291 10.0677 92.2496 10.4901 91.934 10.7995L90.8997 11.8269C90.1214 12.6012 89.9466 13.7957 90.4696 14.7604C90.8115 15.4048 91.09 16.0802 91.3004 16.7787C91.6153 17.8316 92.5854 18.5518 93.6839 18.5487H95.1483C96.0666 18.5487 96.8108 19.293 96.8108 20.2112Z" fill="#FFFEFE"/>
</svg>
